<svg width="746" height="744" viewBox="0 0 746 744" fill="none" xmlns="http://www.w3.org/2000/svg">
<path d="M372.951 3.25594e-05C167.26 5.05414e-05 0.515269 166.55 0.515287 372C0.515305 577.45 167.26 744 372.951 744C578.641 744 745.386 577.45 745.386 372C745.386 166.55 578.641 1.45773e-05 372.951 3.25594e-05Z" fill="#0180FF"/>
<path d="M342.459 574.117L182.595 207.78C181.724 205.166 181.724 202.553 183.466 200.375C184.773 198.197 187.387 196.89 190 196.89L227.026 196.89C232.689 196.89 237.916 200.375 240.094 205.602L372.515 524.459L504.937 205.602C507.115 200.375 512.342 196.89 517.569 196.89L555.466 196.89C558.08 196.89 560.693 198.197 562 200.375C563.307 202.553 563.743 205.166 562.871 207.78L402.572 573.681C399.522 580.651 392.553 585.443 384.712 585.443L360.754 585.443C352.913 585.878 345.508 581.087 342.459 574.117V574.117Z" fill="#F9F9FA" stroke="white" stroke-width="10.6721"/>
</svg>
