<svg width="2500" height="744" viewBox="0 0 2500 744" fill="none" xmlns="http://www.w3.org/2000/svg">
<g clip-path="url(#clip0_101_2)">
<path d="M1344.09 256.131L1431.64 484.82L1519.2 256.131H1589.33L1444.71 615.934C1424.24 667.77 1388.08 684.323 1341.48 684.759C1329.28 684.759 1317.08 683.016 1304.89 680.403L1314.9 621.161C1322.74 624.211 1331.02 625.953 1339.73 626.389C1360.21 626.389 1373.71 619.855 1382.42 599.817L1397.23 564.969L1274.39 256.131H1344.09ZM1899.91 139.827V561.049H1834.57V519.232C1811.48 549.724 1777.07 568.454 1738.3 568.454C1661.2 568.454 1605.01 509.213 1605.01 408.59C1605.01 310.145 1660.77 248.29 1738.3 248.29C1775.33 248.29 1810.18 266.15 1834.57 298.384V139.827H1899.91ZM1111.92 139.827V496.145H1294.43V561.049H1039.61V139.827H1111.92ZM2043.22 256.131V561.049H1977.88V256.131H2043.22ZM1757.04 307.096C1705.63 307.096 1672.53 349.349 1672.53 408.59C1672.53 467.396 1705.2 509.649 1757.04 509.649C1787.96 509.649 1819.76 491.789 1834.57 469.138V348.042C1819.76 325.391 1787.96 307.096 1757.04 307.096ZM2010.55 138.084C2032.77 138.52 2050.63 156.379 2050.19 178.595C2050.19 200.81 2031.9 218.67 2009.68 218.67C1987.47 218.234 1969.17 199.939 1969.17 177.724C1970.48 155.508 1988.34 137.649 2010.55 138.084Z" fill="black"/>
<path d="M2226.49 565.772C2185.75 565.772 2154.62 554.686 2133.1 532.514C2104.22 505.315 2089.78 466.127 2089.78 414.951C2089.78 362.744 2104.22 323.557 2133.1 297.389C2154.62 275.217 2185.75 264.131 2226.49 264.131C2267.22 264.131 2298.35 275.217 2319.88 297.389C2348.63 323.557 2363 362.744 2363 414.951C2363 466.127 2348.63 505.315 2319.88 532.514C2298.35 554.686 2267.22 565.772 2226.49 565.772ZM2282.76 489.201C2296.55 471.799 2303.45 447.049 2303.45 414.951C2303.45 382.983 2296.48 358.297 2282.56 340.895C2268.77 323.363 2250.08 314.598 2226.49 314.598C2202.9 314.598 2184.08 323.299 2170.03 340.701C2155.98 358.104 2148.95 382.854 2148.95 414.951C2148.95 447.049 2155.98 471.799 2170.03 489.201C2184.08 506.604 2202.9 515.305 2226.49 515.305C2250.08 515.305 2268.83 506.604 2282.76 489.201Z" fill="black"/>
<path d="M502.951 3.25594e-05C297.26 5.05414e-05 130.515 166.55 130.515 372C130.515 577.45 297.26 744 502.951 744C708.641 744 875.386 577.45 875.386 372C875.386 166.55 708.641 1.45773e-05 502.951 3.25594e-05Z" fill="#0180FF"/>
<path d="M472.459 574.117L312.595 207.78C311.724 205.166 311.724 202.553 313.466 200.375C314.773 198.197 317.387 196.89 320 196.89L357.026 196.89C362.689 196.89 367.916 200.375 370.094 205.602L502.515 524.459L634.937 205.602C637.115 200.375 642.342 196.89 647.569 196.89L685.466 196.89C688.08 196.89 690.693 198.197 692 200.375C693.307 202.553 693.743 205.166 692.871 207.78L532.572 573.681C529.522 580.651 522.553 585.443 514.712 585.443L490.754 585.443C482.913 585.878 475.508 581.087 472.459 574.117V574.117Z" fill="#F9F9FA" stroke="white" stroke-width="10.6721"/>
</g>
<defs>
<clipPath id="clip0_101_2">
<rect width="2500" height="744" fill="white"/>
</clipPath>
</defs>
</svg>
