<?xml version="1.0" encoding="utf-8"?>
<!-- Generator: Adobe Illustrator 26.0.3, SVG Export Plug-In . SVG Version: 6.00 Build 0)  -->
<svg version="1.1" id="Calque_1" xmlns="http://www.w3.org/2000/svg" xmlns:xlink="http://www.w3.org/1999/xlink" x="0px" y="0px"
	 viewBox="0 0 2770.4 744" style="enable-background:new 0 0 2770.4 744;" xml:space="preserve">
<style type="text/css">
	.st0{clip-path:url(#SVGID_00000137126534334509084390000010592610481510567560_);}
	.st1{fill:#0180FF;}
	.st2{fill:#F9F9FA;stroke:#FFFFFF;stroke-width:10.6721;}
</style>
<g>
	<defs>
		<rect id="SVGID_1_" x="-130.5" width="2500" height="744"/>
	</defs>
	<clipPath id="SVGID_00000029012689949050833590000000847266469396250033_">
		<use xlink:href="#SVGID_1_"  style="overflow:visible;"/>
	</clipPath>
	<g style="clip-path:url(#SVGID_00000029012689949050833590000000847266469396250033_);">
		<path d="M1213.6,256.1l87.6,228.7l87.6-228.7h70.1l-144.6,359.8c-20.5,51.8-56.6,68.4-103.2,68.8c-12.2,0-24.4-1.7-36.6-4.4
			l10-59.2c7.8,3,16.1,4.8,24.8,5.2c20.5,0,34-6.5,42.7-26.6l14.8-34.8l-122.8-308.8H1213.6z M1769.4,139.8V561h-65.3v-41.8
			c-23.1,30.5-57.5,49.2-96.3,49.2c-77.1,0-133.3-59.2-133.3-159.9c0-98.4,55.8-160.3,133.3-160.3c37,0,71.9,17.9,96.3,50.1V139.8
			H1769.4z M981.4,139.8v356.3h182.5V561H909.1V139.8H981.4z M1912.7,256.1V561h-65.3V256.1H1912.7z M1626.5,307.1
			c-51.4,0-84.5,42.3-84.5,101.5c0,58.8,32.7,101.1,84.5,101.1c30.9,0,62.7-17.9,77.5-40.5V348
			C1689.2,325.4,1657.4,307.1,1626.5,307.1z M1880,138.1c22.2,0.4,40.1,18.3,39.6,40.5c0,22.2-18.3,40.1-40.5,40.1
			c-22.2-0.4-40.5-18.7-40.5-40.9C1840,155.5,1857.8,137.6,1880,138.1z"/>
		<path d="M2096,565.8c-40.7,0-71.9-11.1-93.4-33.3c-28.9-27.2-43.3-66.4-43.3-117.6c0-52.2,14.4-91.4,43.3-117.6
			c21.5-22.2,52.7-33.3,93.4-33.3c40.7,0,71.9,11.1,93.4,33.3c28.8,26.2,43.1,65.4,43.1,117.6c0,51.2-14.4,90.4-43.1,117.6
			C2167.8,554.7,2136.7,565.8,2096,565.8z M2152.2,489.2c13.8-17.4,20.7-42.2,20.7-74.2c0-32-7-56.7-20.9-74.1
			c-13.8-17.5-32.5-26.3-56.1-26.3s-42.4,8.7-56.5,26.1c-14.1,17.4-21.1,42.2-21.1,74.2c0,32.1,7,56.8,21.1,74.2
			c14.1,17.4,32.9,26.1,56.5,26.1S2138.3,506.6,2152.2,489.2z"/>
		<path class="st1" d="M372.4,0C166.7,0,0,166.6,0,372s166.7,372,372.4,372c205.7,0,372.4-166.5,372.4-372S578.1,0,372.4,0z"/>
		<path class="st2" d="M341.9,574.1L182.1,207.8c-0.9-2.6-0.9-5.2,0.9-7.4c1.3-2.2,3.9-3.5,6.5-3.5h37c5.7,0,10.9,3.5,13.1,8.7
			L372,524.5l132.4-318.9c2.2-5.2,7.4-8.7,12.6-8.7H555c2.6,0,5.2,1.3,6.5,3.5s1.7,4.8,0.9,7.4L402.1,573.7
			c-3.1,7-10,11.8-17.9,11.8h-24C352.4,585.9,345,581.1,341.9,574.1L341.9,574.1z"/>
	</g>
</g>
<g>
	<path d="M2563.5,150.2c49.1-10.4,104.2-22.3,138.4-26.8c32,8.2,58,21.6,67.7,48.4c-12.7,11.2-6,30.5,0.7,41.7
		c-3.7,2.2-7.4,3.7-11.9,5.2l-1.5-4.5c-4.5-2.2-8.2-3-10.4-3c-3,0-5.2,2.2-5.2,5.2c0,2.2,0.7,4.5,1.5,6
		c-44.7,8.9-110.1,3-171.9,29.8h-10.4v-8.2c-6.7-0.7-11.9,3-16.4,8.9c-25.3,3-33.5,12.7-49.1,59.5c-2.2,6.7-11.2,15.6-15.6,19.3
		l6.7,3.7c-3.7,15.6-14.9,45.4-22.3,44.7c-8.2-0.7-0.7-15.6-5.2-14.9c-8.2,1.5-8.9,17.9-12.7,29.8c3.7,9.7,4.5,15.6,4.5,21.6
		c-3.7,9.7-7.4,26-12.7,26c-7.4,0-3-14.1-6-20.1c-6.7,14.1-11.9,27.5-17.1,40.2l6,3.7c3.7-6.7,7.4-8.9,14.1-7.4
		c-14.1,38.7-26.8,77.4-35,110.9c-17.9,1.5-35.7-0.7-48.4-3.7l3-8.2c-19.3-6.7-17.9-32-20.8-61c-3-3.7-6-10.4-6-15.6
		c0-18.6,42.4-128.7,79.6-213.6h-58c-32.7,0-35,10.4-58.8,4.5c-11.2-17.1-24.6-49.9-24.6-72.2c0-8.9,3-17.1,10.4-24.6
		c29,3,98.2,6,143.6-3c75.2-15.6,42.4-86.3,111.6-86.3L2563.5,150.2z M2469.8,343.7l-7.4,13.4l4.5,5.2l6-13.4L2469.8,343.7z"/>
</g>
</svg>
